<?xml version="1.0" standalone="no"?>
<!DOCTYPE svg PUBLIC "-//W3C//DTD SVG 20010904//EN"
 "http://www.w3.org/TR/2001/REC-SVG-20010904/DTD/svg10.dtd">
<svg version="1.0" xmlns="http://www.w3.org/2000/svg"
 width="512.000000pt" height="512.000000pt" viewBox="0 0 512.000000 512.000000"
 preserveAspectRatio="xMidYMid meet">
<metadata>
Created by potrace 1.14, written by Peter Selinger 2001-2017
</metadata>
<g transform="translate(0.000000,512.000000) scale(0.100000,-0.100000)"
fill="#000000" stroke="none">
<path d="M33 5102 c-27 -21 -38 -64 -24 -90 6 -11 98 -108 206 -215 l194 -194
-29 -34 c-30 -35 -39 -84 -20 -118 5 -10 83 -92 174 -181 l165 -164 -61 -65
c-95 -104 -130 -188 -130 -311 0 -90 20 -162 67 -235 17 -27 152 -170 299
-317 l266 -266 -21 -37 c-59 -99 -13 -231 98 -282 95 -44 174 -19 278 86 l60
61 260 -259 c182 -182 272 -264 299 -276 138 -56 287 105 220 238 -9 18 -131
148 -272 290 l-257 257 163 162 162 163 257 -257 c262 -261 296 -288 365 -288
49 0 116 37 145 81 33 49 38 120 13 169 -10 19 -131 148 -269 286 -138 139
-251 255 -251 259 0 4 31 41 69 81 72 75 91 114 91 184 -1 77 -67 164 -146
190 -44 15 -125 7 -156 -15 -13 -8 -28 -15 -35 -15 -7 0 -135 123 -285 273
-235 236 -282 278 -338 306 -183 89 -378 51 -530 -103 l-44 -46 -177 175
c-161 160 -179 175 -211 175 -24 0 -47 -10 -73 -30 l-37 -30 -190 191 c-105
104 -200 196 -212 204 -27 20 -56 19 -83 -3z"/>
<path d="M3721 3018 c-19 -5 -44 -16 -55 -24 -12 -7 -360 -352 -775 -766 -587
-586 -758 -764 -776 -801 -63 -133 37 -288 187 -287 49 0 116 28 146 60 11 12
25 21 31 19 6 -2 160 -153 343 -334 267 -266 345 -337 393 -362 180 -93 382
-91 546 7 38 22 113 85 170 141 l103 100 149 -151 c83 -83 163 -162 179 -175
42 -35 88 -33 133 6 l35 31 235 -235 c249 -249 271 -265 320 -233 30 20 42 69
22 99 -8 13 -117 125 -242 250 l-228 228 20 22 c29 32 43 62 43 93 0 21 -35
62 -174 203 l-174 176 108 112 c84 87 117 130 145 187 84 169 85 336 3 505
-28 58 -73 107 -371 408 l-340 342 31 39 c40 50 53 85 54 143 1 130 -134 231
-261 197z"/>
</g>
</svg>
